# xmcd
#
# Track frame offsets: 
#        183
#        17743
#        32733
#        51730
#        71383
#        90735
#        112210
#        132718
#        147148
#        161160
#        179013
#        197788
#        215558
#        235328
#        250753
#
# Disc length: 3613 seconds
#
# Revision: 2
# Processed by: cddbd v1.5.2PL0 Copyright (c) Steve Scherf et al.
# Submitted via: ExactAudioCopyFreeDBPlugin 1.0
#
DISCID=ec0e1b0f
DTITLE=Sarah Jory - Web of love
DYEAR=1994
DGENRE=Country
TTITLE0=Before I call it love
TTITLE1=Even then
TTITLE2=Candle burning
TTITLE3=If I love you
TTITLE4=Every time
TTITLE5=Binding me like a chain
TTITLE6=Web of love
TTITLE7=When you walk in the room
TTITLE8=Over you
TTITLE9=Even a fool
TTITLE10=Two sparrows in a hurricane
TTITLE11=Who's crying now
TTITLE12=On the way to a dream
TTITLE13=Real slow
TTITLE14=Stop playing with my heart
EXTD=
EXTT0=
EXTT1=
EXTT2=
EXTT3=
EXTT4=
EXTT5=
EXTT6=
EXTT7=
EXTT8=
EXTT9=
EXTT10=
EXTT11=
EXTT12=
EXTT13=
EXTT14=
PLAYORDER=
